<svg width="20" height="20" viewBox="0 0 20 20" fill="none" xmlns="http://www.w3.org/2000/svg">
<path d="M19.1666 14.1667C19.1666 16.925 16.9249 19.1667 14.1666 19.1667V17.9167C16.2499 17.9167 17.9166 16.25 17.9166 14.1667H19.1666ZM0.833268 5.83333C0.833268 3.07499 3.07493 0.833328 5.83327 0.833328V2.08333C3.74993 2.08333 2.08327 3.74999 2.08327 5.83333H0.833268ZM6.6666 3.59999L2.8416 7.43333C0.158268 10.1167 0.158268 14.475 2.8416 17.1583C5.52493 19.8417 9.88327 19.8417 12.5666 17.1583L18.4583 11.25C18.8666 10.8583 18.8666 10.2 18.4583 9.79166C18.0499 9.38333 17.3916 9.38333 16.9833 9.79166L13.2999 13.475L12.7083 12.8833L18.1583 7.43333C18.5666 7.02499 18.5666 6.36666 18.1583 5.95833C17.7499 5.54999 17.0833 5.54999 16.6666 5.95833L11.8249 10.8333L11.2499 10.225L16.9749 4.48333C17.3833 4.07499 17.3833 3.41666 16.9749 3.00833C16.5666 2.59999 15.9083 2.59999 15.4999 3.00833L9.75827 8.74999L9.1666 8.16666L13.7499 3.59999C14.1666 3.19166 14.1666 2.53333 13.7499 2.12499C13.3333 1.71666 12.6833 1.71666 12.2749 2.12499L5.92493 8.47499C6.9416 9.78333 6.84993 11.6667 5.64993 12.875L5.05827 12.2833C6.03327 11.3083 6.03327 9.72499 5.05827 8.74999L4.7666 8.45833L8.15827 5.06666C8.5666 4.65833 8.5666 3.99999 8.15827 3.59166C7.7416 3.19166 7.08327 3.19166 6.6666 3.59999Z" fill="#FAC390"/>
</svg>
